<?xml version="1.0" encoding="iso-8859-1"?>
<!-- Generator: Adobe Illustrator 19.0.0, SVG Export Plug-In . SVG Version: 6.00 Build 0)  -->
<svg xmlns="http://www.w3.org/2000/svg" xmlns:xlink="http://www.w3.org/1999/xlink" version="1.1" id="Layer_1" x="0px" y="0px" viewBox="0 0 512.096 512.096" style="enable-background:new 0 0 512.096 512.096;" xml:space="preserve" width="512px" height="512px">
<g>
	<g>
		<polygon points="79.056,80.352 29.824,136.432 11.44,117.584 0,128.768 30.448,159.968 91.088,90.912   " fill="#FFFFFF"/>
	</g>
</g>
<g>
	<g>
		<rect x="156.256" y="89.776" width="189.76" height="16" fill="#FFFFFF"/>
	</g>
</g>
<g>
	<g>
		<rect x="156.256" y="138.4" width="355.84" height="16" fill="#FFFFFF"/>
	</g>
</g>
<g>
	<g>
		<polygon points="79.056,216.24 29.824,272.336 11.44,253.472 0,264.656 30.448,295.856 91.088,226.8   " fill="#FFFFFF"/>
	</g>
</g>
<g>
	<g>
		<rect x="156.256" y="225.648" width="189.76" height="16" fill="#FFFFFF"/>
	</g>
</g>
<g>
	<g>
		<rect x="156.256" y="274.288" width="355.84" height="16" fill="#FFFFFF"/>
	</g>
</g>
<g>
	<g>
		<polygon points="79.056,352.128 29.824,408.224 11.44,389.36 0,400.544 30.448,431.744 91.088,362.688   " fill="#FFFFFF"/>
	</g>
</g>
<g>
	<g>
		<rect x="156.256" y="361.568" width="189.76" height="16" fill="#FFFFFF"/>
	</g>
</g>
<g>
	<g>
		<rect x="156.256" y="410.192" width="355.84" height="16" fill="#FFFFFF"/>
	</g>
</g>
<g>
</g>
<g>
</g>
<g>
</g>
<g>
</g>
<g>
</g>
<g>
</g>
<g>
</g>
<g>
</g>
<g>
</g>
<g>
</g>
<g>
</g>
<g>
</g>
<g>
</g>
<g>
</g>
<g>
</g>
</svg>
