<svg xmlns="http://www.w3.org/2000/svg" width="1227" height="334" viewBox="0 0 1227 334">
  <defs>
    <style>
      .cls-1 {
        fill: #fb8834;
      }

      .cls-1, .cls-2 {
        fill-rule: evenodd;
      }
    </style>
  </defs>
  <path id="Shape_18_копия_3" data-name="Shape 18 копия 3" class="cls-1" d="M168.189,333.454L8.225,171.176A27.18,27.18,0,0,1,8.317,133.3L126.931,12.69A26.1,26.1,0,0,1,164.18,12.6l8.943,9.093-4.586,4.664h0L21.756,175.606,172.777,328.79ZM1049.3,300.312h0L1196.09,151.06,1058.48,11.137l4.58-4.664L1218.78,164.81a27.191,27.191,0,0,1-.08,37.885L1100.08,323.306a26.111,26.111,0,0,1-37.25.083l-18.11-18.413ZM65.163,103.484L97.608,70.493a3.1,3.1,0,0,1,4.435.186,3.2,3.2,0,0,1,.152,4.478L69.749,108.148a3.066,3.066,0,0,1-4.4-.154A3.224,3.224,0,0,1,65.163,103.484ZM1150.2,253.683a12.815,12.815,0,0,1-18.34-.019,13.311,13.311,0,0,1,0-18.638,12.806,12.806,0,0,1,18.34-.01A13.356,13.356,0,0,1,1150.2,253.683ZM702.5,293l4.5,9H406v-9H702.5Zm19.266,8.625a5.913,5.913,0,0,0,3.711-7.525L669.215,140.626a5.978,5.978,0,0,0-7.713-3.4,5.913,5.913,0,0,0-3.712,7.525l56.262,153.473A5.979,5.979,0,0,0,721.766,301.624Z"/>
  <path id="Shape_18_копия_4" data-name="Shape 18 копия 4" class="cls-2" d="M941.126,150.172v29.4h45.931v11.76H941.126v37.52h45.931v11.9H929.405V138.272h58.06v11.9H941.126Zm-74.822-11.9h11.857v90.86h37.617v11.62H866.3V138.272Zm-59.694,93.52q19.217,0,33.391-16.94l9.132,7.14q-16.085,21.282-44.159,21.28-23.715,0-38.843-15.4T751,188.952a53.356,53.356,0,0,1,7.019-26.88,50.528,50.528,0,0,1,19.421-19.32,53.591,53.591,0,0,1,26.782-7,56.987,56.987,0,0,1,25.759,5.67A50.4,50.4,0,0,1,849,158.012l-9,7.14q-14.177-17.64-35.027-17.64a40.134,40.134,0,0,0-29.371,12.32A41,41,0,0,0,763.269,190q0,17.85,12.062,29.82T806.61,231.792Zm-82.119,22.17a5.968,5.968,0,0,1-7.6-3.631c-18.174-54.981-42.851-116.87-52.576-125.652a54.669,54.669,0,0,0-6.82,1.523,50,50,0,0,0-6.234,3.182c-1.768,13.032,19.386,76.15,41.043,129.832a5.9,5.9,0,0,1-3.475,7.633A6.038,6.038,0,0,1,681,263.687C669.4,234.92,632.21,139.795,640.72,123.168a6.041,6.041,0,0,1,2.247-2.418c0.325-.2,1.931-1.183,3.939-2.3a14.765,14.765,0,0,1-8.283-25.928l-6.579-17.712c-4.4,1.728-8.542,3.382-11.77,4.694-11.312,4.57-50.374-6.487-61.8-9.892L545.811,95,533.453,89.88l16.81-33.71,12.358,5.117-0.092.186c16.167,4.409,44.011,11.04,53.287,7.275,9.648-3.9,27.293-10.828,36.339-13.9,9.682-3.292,26.578-27.1,36.032-40.576l-0.078-.043,5.583-12.155L726.739,20.15,721.155,32.3,696.419,18.772c-6.485,9.575-29.144,43.215-40.485,47.074-3.283,1.114-7.752,2.759-12.559,4.584l6.668,17.95A15.16,15.16,0,0,1,663.9,98.125a14.91,14.91,0,0,1-3.381,15.414c2.083-.4,3.867-0.673,4.476-0.763a6.191,6.191,0,0,1,3.328.414c17.282,7.31,50.373,103.913,60.11,133.353a5.934,5.934,0,0,1-3.768,7.355C724.605,253.92,724.545,253.94,724.491,253.962ZM567.256,135.752a56.984,56.984,0,0,1,25.759,5.67,50.4,50.4,0,0,1,19.013,16.59l-9,7.14q-14.175-17.64-35.026-17.64a40.132,40.132,0,0,0-29.371,12.32A41,41,0,0,0,526.3,190q0,17.85,12.062,29.82t31.279,11.97q19.217,0,33.391-16.94l9.132,7.14q-16.083,21.282-44.158,21.28-23.715,0-38.843-15.4t-15.129-38.92a53.356,53.356,0,0,1,7.019-26.88,50.537,50.537,0,0,1,19.422-19.32A53.59,53.59,0,0,1,567.256,135.752Zm-80.889,2.52h11.721v102.48H486.367V138.272Zm-48.654,102.48h-27.94V138.272H430.08q15.81,0,24.056,6.65t8.246,18.97q0,13.44-11.176,20.72,9.537,3.642,14.378,10.36a26.6,26.6,0,0,1,4.839,15.96,27.976,27.976,0,0,1-9.064,21.35Q452.295,240.754,437.713,240.752Zm-6-90.72H421.358v30.24h4.634q12.265,0,18.331-3.92t6.065-12.46Q450.388,150.032,431.716,150.032Zm24.873,53.69a18.088,18.088,0,0,0-5.043-6.09,22.6,22.6,0,0,0-8.177-3.99q-4.839-1.329-17.514-1.33h-4.5v36.68h11.176q10.493,0,15.264-2.1a17.311,17.311,0,0,0,7.633-6.44,15.861,15.861,0,0,0,2.862-8.82A17.575,17.575,0,0,0,456.589,203.722Zm-108-62.17-47.9,99.6h-5.062l-48.481-100.4-13.24,100.4h-16.16L238,94.752h4.089l56.074,116.2,55.685-116.2h4.089l20.443,146.4H361.828Z"/>
</svg>
