<?xml version="1.0" encoding="iso-8859-1"?>
<!-- Generator: Adobe Illustrator 19.0.0, SVG Export Plug-In . SVG Version: 6.00 Build 0)  -->
<svg xmlns="http://www.w3.org/2000/svg" xmlns:xlink="http://www.w3.org/1999/xlink" version="1.1" id="Capa_1" x="0px" y="0px" viewBox="0 0 512 512" style="enable-background:new 0 0 512 512;" xml:space="preserve" width="16px" height="16px">
<g>
	<g>
		<path d="M500.982,230.719c-9.544-11.899-23.768-18.724-39.023-18.724h-12.794v-46.913c0-24.767-20.149-44.916-44.916-44.916    h-14.972v-14.972c0-3.839-1.537-7.731-4.374-10.574c-0.005-0.005-0.009-0.01-0.014-0.015L295.06,4.776    c-0.005-0.005-0.01-0.009-0.015-0.014c-2.763-2.758-6.632-4.374-10.574-4.374H74.861c-8.269,0-14.972,6.703-14.972,14.972v74.861    H44.916C20.149,90.221,0,110.371,0,135.138v331.383c0,29.414,28.01,48.202,47.593,44.664c1.554,0.162,3.123,0.253,4.707,0.253    h369.448c21.214,0,39.244-14.463,43.847-35.173l45.198-203.39C514.103,257.983,510.527,242.618,500.982,230.719z M389.275,150.11    h14.972c8.256,0,14.972,6.716,14.972,14.972v46.913h-29.944V150.11z M299.443,51.507l38.715,38.714h-38.715V51.507z     M89.833,30.333h179.666v74.861c0,8.269,6.704,14.972,14.972,14.972h74.861v91.829H98.881c-3.095,0-6.12,0.316-9.048,0.907V30.333    z M29.944,135.138c0-8.256,6.716-14.972,14.972-14.972h14.972v114.371c-2.191,3.853-3.846,8.092-4.854,12.631l-25.09,112.905    V135.138z M481.564,266.379l-45.198,203.389c-1.534,6.903-7.545,11.725-14.617,11.725H52.301c-4.565,0-8.823-2.042-11.679-5.604    c-2.857-3.561-3.928-8.16-2.937-12.617l46.58-209.61c1.521-6.842,7.485-11.724,14.616-11.724h363.077    c6.124,0,11.833,2.74,15.665,7.517C481.457,254.233,482.892,260.401,481.564,266.379z" fill="#FFFFFF"/>
	</g>
</g>
<g>
	<g>
		<path d="M314.415,150.11H134.749c-8.269,0-14.972,6.703-14.972,14.972s6.704,14.972,14.972,14.972h179.666    c8.269,0,14.972-6.704,14.972-14.972S322.683,150.11,314.415,150.11z" fill="#FFFFFF"/>
	</g>
</g>
<g>
</g>
<g>
</g>
<g>
</g>
<g>
</g>
<g>
</g>
<g>
</g>
<g>
</g>
<g>
</g>
<g>
</g>
<g>
</g>
<g>
</g>
<g>
</g>
<g>
</g>
<g>
</g>
<g>
</g>
</svg>
